<svg xmlns="http://www.w3.org/2000/svg" width="318.586" height="34.32" viewBox="0 0 318.586 34.32">
  <g id="Group_122" data-name="Group 122" transform="translate(-108.601 -50.432)">
    <g id="Group_121" data-name="Group 121">
      <g id="Group_120" data-name="Group 120">
        <path id="Path_14" data-name="Path 14" d="M141.6,52.152v30.88h11.3V72.217h10.787V64.2H152.9V61h11.937V52.151Z" transform="translate(-33 0)" fill="#fff"/>
        <rect id="Rectangle_46" data-name="Rectangle 46" width="11.223" height="30.88" transform="translate(134.823 52.152)" fill="#fff"/>
        <path id="Path_15" data-name="Path 15" d="M182.11,52.152V62.188l6.179-.283V83.033h11.222V61.9l6.187.282V52.152Z" transform="translate(-33 0)" fill="#fff"/>
        <path id="Path_16" data-name="Path 16" d="M242.387,52.152v30.88h21.091V74.594H253.7V71.56h8.646V63.541H253.7V60.6h9.454V52.152Z" transform="translate(-33 0)" fill="#fff"/>
        <path id="Path_17" data-name="Path 17" d="M270.655,71.97l.573.454a11.792,11.792,0,0,0,7,2.825c1.108,0,2.859-.461,2.859-1.842s-1.472-1.513-2.5-1.719l-2.241-.4c-4.377-.783-8.068-3.362-8.068-8.2,0-7.323,6.674-11.421,13.389-11.421a18.222,18.222,0,0,1,9.777,2.706l-3.021,7.892a11.711,11.711,0,0,0-6.507-2.34c-.988,0-2.423.372-2.423,1.649,0,1.138,1.4,1.31,2.255,1.517l2.528.567c4.75,1.065,8.191,3.606,8.191,8.849,0,7.363-6.714,11.013-13.383,11.013a27.767,27.767,0,0,1-11.875-2.827Z" transform="matrix(0.995, 0.105, -0.105, 0.995, -24.402, -28.881)" fill="#fff"/>
        <path id="Path_18" data-name="Path 18" d="M297.783,71.97l.578.454a11.777,11.777,0,0,0,7,2.825c1.114,0,2.868-.461,2.868-1.842s-1.48-1.509-2.5-1.719l-2.258-.4c-4.377-.781-8.062-3.362-8.062-8.2,0-7.323,6.674-11.421,13.392-11.421a18.231,18.231,0,0,1,9.783,2.706l-3.022,7.892a11.731,11.731,0,0,0-6.521-2.34c-.988,0-2.414.372-2.414,1.649,0,1.138,1.4,1.31,2.255,1.517l2.528.567c4.757,1.065,8.191,3.606,8.191,8.849,0,7.363-6.714,11.013-13.38,11.013A27.764,27.764,0,0,1,294.347,80.7Z" transform="translate(-33 0)" fill="#fff"/>
        <path id="Path_19" data-name="Path 19" d="M208.76,52.2h11.986l18.711,30.838H227.446Z" transform="translate(-33 0)" fill="#fff"/>
        <path id="Path_20" data-name="Path 20" d="M369.7,52.26,356.275,73.6l.126.164c.863-.078,1.763-.164,2.62-.164h9.335v9.536H338.308l11.125-18.053a33.642,33.642,0,0,1,2.752-3.728l-.165-.127a11.227,11.227,0,0,1-2.673.368h-8.384V52.26Z" transform="translate(-33 0)" fill="#fff"/>
        <path id="Path_21" data-name="Path 21" d="M439.1,52.26H459.86V60.7H450.4v2.945h8.639v8.01H450.4v3.035h9.788v8.428H439.1Z" transform="translate(-33 0)" fill="#fff"/>
        <path id="Path_22" data-name="Path 22" d="M405.465,52.318h11.99l18.7,30.833h-12Z" transform="translate(-33 0)" fill="#008ddc"/>
        <path id="Path_23" data-name="Path 23" d="M387.839,84.208a16.388,16.388,0,1,1,16.387-16.389v0a16.409,16.409,0,0,1-16.387,16.384m0-21.955a5.563,5.563,0,1,0,5.554,5.573v0a5.575,5.575,0,0,0-5.554-5.571" transform="translate(-33 0)" fill="#008ddc"/>
      </g>
    </g>
  </g>
</svg>
