<svg xmlns="http://www.w3.org/2000/svg" xmlns:xlink="http://www.w3.org/1999/xlink" width="252" height="25.926" viewBox="0 0 252 25.926">
  <defs>
    <clipPath id="clip-path">
      <rect id="Rectangle_18" data-name="Rectangle 18" width="252" height="25.926" fill="none"/>
    </clipPath>
  </defs>
  <g id="Group_6" data-name="Group 6" transform="translate(0 0)">
    <path id="Path_97" data-name="Path 97" d="M0,.309V24.735H8.938V16.18h8.533V9.837H8.938V7.308H18.38v-7Z" transform="translate(0 0.261)" fill="#fff"/>
    <rect id="Rectangle_17" data-name="Rectangle 17" width="8.877" height="24.426" transform="translate(20.741 0.569)" fill="#fff"/>
    <path id="Path_98" data-name="Path 98" d="M17.383.309V8.247l4.888-.223V24.735h8.876V8.023l4.894.223V.309Z" transform="translate(14.659 0.261)" fill="#fff"/>
    <path id="Path_99" data-name="Path 99" d="M43.249.309V24.735H59.932V18.06H52.2v-2.4h6.839V9.317H52.2V6.989h7.478V.309Z" transform="translate(36.472 0.261)" fill="#fff"/>
    <g id="Group_5" data-name="Group 5" transform="translate(0 0)">
      <g id="Group_4" data-name="Group 4" clip-path="url(#clip-path)">
        <path id="Path_100" data-name="Path 100" d="M56.623,16.161l.453.359a9.323,9.323,0,0,0,5.537,2.234c.877,0,2.262-.365,2.262-1.456S63.71,16.1,62.9,15.938l-1.773-.321c-3.462-.618-6.382-2.658-6.382-6.483C54.745,3.341,60.024.1,65.336.1a14.408,14.408,0,0,1,7.733,2.14L70.68,8.483a9.257,9.257,0,0,0-5.147-1.851c-.782,0-1.917.295-1.917,1.305,0,.9,1.106,1.036,1.784,1.2l2,.448c3.757.842,6.479,2.852,6.479,7,0,5.823-5.311,8.71-10.586,8.71A21.954,21.954,0,0,1,53.9,23.06Z" transform="translate(45.458 0.085)" fill="#fff"/>
        <path id="Path_101" data-name="Path 101" d="M68.261,16.161l.457.359a9.314,9.314,0,0,0,5.537,2.234c.881,0,2.269-.365,2.269-1.456s-1.171-1.194-1.976-1.36l-1.786-.321C69.3,15,66.385,12.959,66.385,9.134,66.385,3.341,71.664.1,76.978.1a14.418,14.418,0,0,1,7.738,2.14L82.326,8.483a9.286,9.286,0,0,0-5.158-1.851c-.782,0-1.91.295-1.91,1.305,0,.9,1.106,1.036,1.784,1.2l2,.448c3.762.842,6.479,2.852,6.479,7,0,5.823-5.311,8.71-10.584,8.71a21.942,21.942,0,0,1-9.394-2.232Z" transform="translate(55.278 0.085)" fill="#fff"/>
        <path id="Path_102" data-name="Path 102" d="M28.819.331H38.3L53.1,24.724H43.6Z" transform="translate(24.303 0.28)" fill="#fff"/>
        <path id="Path_103" data-name="Path 103" d="M109.245.355,98.622,17.231l.1.129c.682-.061,1.394-.129,2.072-.129h7.384v7.543H84.41l8.8-14.28a26.5,26.5,0,0,1,2.177-2.949l-.131-.1a8.906,8.906,0,0,1-2.114.291H86.51V.355Z" transform="translate(71.184 0.3)" fill="#fff"/>
        <path id="Path_104" data-name="Path 104" d="M127.659.355h16.424V7.034H136.6v2.33h6.833V15.7H136.6v2.4h7.742v6.667H127.659Z" transform="translate(107.658 0.3)" fill="#fff"/>
        <path id="Path_105" data-name="Path 105" d="M113.228.38h9.484L137.5,24.769h-9.491Z" transform="translate(95.487 0.321)" fill="#0090df"/>
        <path id="Path_106" data-name="Path 106" d="M111.6,25.926a12.963,12.963,0,1,1,12.962-12.96A12.98,12.98,0,0,1,111.6,25.926m0-17.366a4.4,4.4,0,1,0,4.393,4.406A4.408,4.408,0,0,0,111.6,8.56" transform="translate(83.173 0)" fill="#0090df"/>
      </g>
    </g>
  </g>
</svg>
