<svg xmlns="http://www.w3.org/2000/svg" width="33.851" height="33.851" viewBox="0 0 33.851 33.851">
  <g id="Group_8" data-name="Group 8" transform="translate(-91.957 -222.638)">
    <g id="Group_7" data-name="Group 7">
      <circle id="Ellipse_2" data-name="Ellipse 2" cx="16.926" cy="16.926" r="16.926" transform="translate(91.957 222.638)" fill="#fff"/>
      <g id="Group_6" data-name="Group 6">
        <path id="Path_28" data-name="Path 28" d="M107.057,231.866c.048.867.091,1.734.148,2.6a.363.363,0,0,1-.2.375c-.738.473-1.465.963-2.2,1.438a.269.269,0,0,0-.146.337A21.055,21.055,0,0,0,106,240.5a15.24,15.24,0,0,0,2.986,4.012c.187.194.39.372.573.569a.218.218,0,0,0,.312.042c.787-.4,1.582-.792,2.368-1.2a.383.383,0,0,1,.447.018q2.216,1.462,4.446,2.9a.417.417,0,0,1,.237.445c-.1.6-.193,1.2-.321,1.786a.892.892,0,0,1-.283.421,5.446,5.446,0,0,1-6.23.991,11.506,11.506,0,0,1-4.025-2.948,24.756,24.756,0,0,1-5.629-9.972,12.109,12.109,0,0,1-.453-4.25,5.538,5.538,0,0,1,3.995-5.167.992.992,0,0,1,.556-.034c.567.18,1.122.4,1.679.611a.4.4,0,0,1,.254.409c.043.911.1,1.821.15,2.731Z" fill="#151921"/>
      </g>
    </g>
  </g>
</svg>
